<svg width="17" height="17" viewBox="0 0 17 17" fill="none" xmlns="http://www.w3.org/2000/svg">
<g id="ant-design:star-filled">
<path id="Vector" d="M15.0787 5.86204L10.8636 5.24944L8.97928 1.42943C8.92781 1.32484 8.84315 1.24017 8.73856 1.1887C8.47625 1.05921 8.1575 1.16712 8.02635 1.42943L6.14207 5.24944L1.92694 5.86204C1.81073 5.87864 1.70448 5.93343 1.62313 6.01644C1.52478 6.11752 1.47059 6.25351 1.47246 6.39452C1.47433 6.53554 1.5321 6.67005 1.63309 6.76849L4.6828 9.74183L3.96229 13.9404C3.94539 14.038 3.9562 14.1385 3.99349 14.2303C4.03077 14.3222 4.09304 14.4017 4.17324 14.46C4.25344 14.5182 4.34835 14.5528 4.44722 14.5599C4.54609 14.5669 4.64495 14.5461 4.7326 14.4998L8.50281 12.5176L12.273 14.4998C12.376 14.5546 12.4955 14.5729 12.61 14.553C12.8989 14.5032 13.0931 14.2292 13.0433 13.9404L12.3228 9.74183L15.3725 6.76849C15.4555 6.68714 15.5103 6.58089 15.5269 6.46468C15.5718 6.17415 15.3692 5.90521 15.0787 5.86204Z" fill="#037E8C"/>
</g>
</svg>
