<svg width="28" height="29" viewBox="0 0 28 29" fill="none" xmlns="http://www.w3.org/2000/svg">
<g id="ant-design:whats-app-outlined">
<path id="Vector" d="M19.2498 16.6746C18.9566 16.524 17.4962 15.8086 17.2246 15.7117C16.9529 15.6095 16.7539 15.5611 16.5576 15.8624C16.3586 16.1609 15.7938 16.8252 15.6163 17.0269C15.4441 17.2259 15.2693 17.2501 14.9762 17.1022C13.2333 16.2308 12.0903 15.5477 10.9419 13.5763C10.638 13.0518 11.2458 13.0895 11.8133 11.9572C11.9101 11.7582 11.8617 11.5887 11.7864 11.4381C11.7111 11.2875 11.1194 9.82977 10.872 9.23539C10.6326 8.65714 10.3851 8.73782 10.205 8.72707C10.0328 8.71631 9.83649 8.71631 9.63746 8.71631C9.43844 8.71631 9.11839 8.79162 8.84675 9.08477C8.57511 9.38331 7.80859 10.1014 7.80859 11.5591C7.80859 13.0168 8.87095 14.4288 9.01619 14.6279C9.1668 14.8269 11.1059 17.8176 14.0832 19.1059C15.9659 19.9181 16.7028 19.9881 17.6441 19.8482C18.217 19.7622 19.3977 19.1328 19.6425 18.4362C19.8872 17.7423 19.8872 17.1479 19.8146 17.0242C19.742 16.8924 19.5429 16.8171 19.2498 16.6746Z" fill="white"/>
<path id="Vector_2" d="M24.9435 9.64127C24.3357 8.19699 23.4643 6.90065 22.3535 5.78719C21.2428 4.67642 19.9464 3.80232 18.4994 3.19718C17.0202 2.5759 15.4495 2.26123 13.8304 2.26123H13.7766C12.1468 2.2693 10.5681 2.59204 9.08344 3.22677C7.64993 3.83998 6.36434 4.71138 5.26433 5.82215C4.16431 6.93292 3.30098 8.22389 2.70391 9.66278C2.08532 11.1528 1.77333 12.7369 1.7814 14.3667C1.78947 16.2333 2.23593 18.0863 3.07237 19.7431V23.8312C3.07237 24.5143 3.62641 25.0683 4.30955 25.0683H8.4003C10.057 25.9048 11.9101 26.3512 13.7766 26.3593H13.8331C15.4441 26.3593 17.0068 26.0473 18.4779 25.4368C19.9168 24.837 21.2105 23.9764 22.3186 22.8764C23.4293 21.7764 24.3034 20.4908 24.9139 19.0573C25.5487 17.5727 25.8714 15.9939 25.8795 14.3641C25.8875 12.7261 25.5702 11.1366 24.9435 9.64127ZM20.8797 21.4214C18.9943 23.2879 16.4931 24.3153 13.8304 24.3153H13.7847C12.1629 24.3072 10.5519 23.9038 9.12916 23.1453L8.90324 23.0243H5.1164V19.2375L4.99538 19.0115C4.23693 17.5888 3.8335 15.9778 3.82544 14.356C3.81468 11.6745 4.83938 9.15715 6.71936 7.26104C8.59664 5.36493 11.106 4.31602 13.7874 4.30526H13.8331C15.1779 4.30526 16.4823 4.56615 17.7114 5.08253C18.9109 5.58547 19.9867 6.30895 20.9119 7.23415C21.8344 8.15665 22.5606 9.23515 23.0636 10.4347C23.5853 11.6772 23.8462 12.9951 23.8408 14.356C23.8247 17.0347 22.7731 19.5441 20.8797 21.4214Z" fill="white"/>
</g>
</svg>
