<svg width="21" height="23" viewBox="0 0 21 23" fill="none" xmlns="http://www.w3.org/2000/svg">
<g id="email (2) 1">
<g id="Group">
<g id="Group_2">
<path id="Vector" d="M19.1543 3.12061H1.8457C0.829254 3.12061 0 3.9884 0 5.0542V17.9448C0 19.007 0.825563 19.8784 1.8457 19.8784H19.1543C20.1682 19.8784 21 19.0135 21 17.9448V5.0542C21 3.99201 20.1744 3.12061 19.1543 3.12061ZM18.8994 4.40967L10.5391 13.1681L2.10652 4.40967H18.8994ZM1.23047 17.6779V5.31498L7.15637 11.4698L1.23047 17.6779ZM2.10053 18.5894L8.03016 12.3774L10.1079 14.5353C10.3484 14.7852 10.7365 14.7843 10.9761 14.5334L13.002 12.411L18.8995 18.5894H2.10053ZM19.7695 17.6779L13.872 11.4995L19.7695 5.32112V17.6779Z" fill="white"/>
</g>
</g>
</g>
</svg>
