<svg width="21" height="21" viewBox="0 0 21 21" fill="none" xmlns="http://www.w3.org/2000/svg">
<g id="heroicons-solid:check">
<g id="Group">
<path id="Vector" fill-rule="evenodd" clip-rule="evenodd" d="M16.9673 5.96104C17.1481 6.14187 17.2497 6.3871 17.2497 6.64279C17.2497 6.89848 17.1481 7.14371 16.9673 7.32454L9.25305 15.0388C9.07222 15.2196 8.82699 15.3212 8.5713 15.3212C8.3156 15.3212 8.07038 15.2196 7.88955 15.0388L4.03241 11.1817C3.85675 10.9998 3.75956 10.7562 3.76176 10.5034C3.76395 10.2506 3.86537 10.0087 4.04415 9.82993C4.22294 9.65114 4.46479 9.54973 4.71763 9.54753C4.97046 9.54534 5.21404 9.64253 5.3959 9.81818L8.5713 12.9936L15.6038 5.96104C15.7847 5.78027 16.0299 5.67871 16.2856 5.67871C16.5413 5.67871 16.7865 5.78027 16.9673 5.96104Z" fill="white"/>
</g>
</g>
</svg>
