<svg width="21" height="21" viewBox="0 0 21 21" fill="none" xmlns="http://www.w3.org/2000/svg">
<g id="home (1) 1" clip-path="url(#clip0_1_570)">
<path id="Vector" d="M20.0152 8.69488C20.0146 8.69442 20.0142 8.69381 20.0137 8.69335L11.8693 0.549216C11.5221 0.201912 11.0606 0.0107422 10.5696 0.0107422C10.0787 0.0107422 9.61713 0.201912 9.26982 0.549216L1.12964 8.68924C1.1269 8.69198 1.12401 8.69488 1.12142 8.69762C0.408531 9.41462 0.40975 10.5779 1.12492 11.2931C1.45166 11.62 1.88305 11.8092 2.34445 11.8291C2.36334 11.831 2.38223 11.8319 2.40127 11.8319H2.72572V17.8253C2.72572 19.0115 3.69086 19.9765 4.87703 19.9765H8.0634C8.38648 19.9765 8.64833 19.7145 8.64833 19.3915V14.6926C8.64833 14.1514 9.0887 13.7111 9.62992 13.7111H11.5093C12.0505 13.7111 12.4908 14.1514 12.4908 14.6926V19.3915C12.4908 19.7145 12.7526 19.9765 13.0757 19.9765H16.2621C17.4484 19.9765 18.4134 19.0115 18.4134 17.8253V11.8319H18.7144C19.2052 11.8319 19.6667 11.6407 20.0142 11.2933C20.7301 10.577 20.7304 9.41157 20.0152 8.69488ZM19.1869 10.4661C19.0606 10.5924 18.8927 10.662 18.7144 10.662H17.8284C17.5054 10.662 17.2435 10.9239 17.2435 11.247V17.8253C17.2435 18.3664 16.8033 18.8066 16.2621 18.8066H13.6606V14.6926C13.6606 13.5064 12.6956 12.5413 11.5093 12.5413H9.62992C8.4436 12.5413 7.47846 13.5064 7.47846 14.6926V18.8066H4.87703C4.33597 18.8066 3.89559 18.3664 3.89559 17.8253V11.247C3.89559 10.9239 3.63374 10.662 3.31066 10.662H2.43996C2.43082 10.6614 2.42183 10.661 2.41254 10.6608C2.23828 10.6578 2.07483 10.5886 1.95236 10.466C1.69188 10.2055 1.69188 9.78157 1.95236 9.52094C1.95251 9.52094 1.95251 9.52079 1.95266 9.52064L1.95312 9.52018L10.0973 1.37635C10.2234 1.25007 10.3911 1.18061 10.5696 1.18061C10.748 1.18061 10.9157 1.25007 11.042 1.37635L19.1843 9.51851C19.1855 9.51972 19.1869 9.52094 19.1881 9.52216C19.4472 9.7831 19.4468 10.2061 19.1869 10.4661Z" fill="white"/>
</g>
<defs>
<clipPath id="clip0_1_570">
<rect width="19.9657" height="19.9657" fill="white" transform="translate(0.548828 0.0488281)"/>
</clipPath>
</defs>
</svg>
