<svg width="18" height="18" viewBox="0 0 18 18" fill="none" xmlns="http://www.w3.org/2000/svg">
<g id="next 2" clip-path="url(#clip0_1_458)">
<g id="Group">
<g id="Group_2">
<path id="Vector" d="M8.50605 4.34469L0.20355 12.6702C-0.0683121 12.943 -0.0678551 13.3846 0.204956 13.6569C0.477733 13.9291 0.91961 13.9283 1.19168 13.6555L9.00003 5.82557L16.8083 13.6558C17.0805 13.9286 17.522 13.9293 17.7949 13.6572C17.9316 13.5207 18 13.3419 18 13.163C18 12.9847 17.9321 12.8065 17.7963 12.6703L9.49397 4.34469C9.36326 4.21331 9.18537 4.13959 9.00003 4.13959C8.81469 4.13959 8.63701 4.21352 8.50605 4.34469Z" fill="#037E8C"/>
</g>
</g>
</g>
<defs>
<clipPath id="clip0_1_458">
<rect width="18" height="18" fill="white" transform="matrix(0 -1 1 0 0 18)"/>
</clipPath>
</defs>
</svg>
