<?xml version="1.0" encoding="UTF-8" standalone="no"?>
<!-- Created with Inkscape (http://www.inkscape.org/) -->

<svg
   width="32"
   height="32"
   viewBox="0 0 32 32"
   version="1.1"
   id="svg1"
   inkscape:version="1.3 (0e150ed6c4, 2023-07-21)"
   sodipodi:docname="phone_new.svg"
   xmlns:inkscape="http://www.inkscape.org/namespaces/inkscape"
   xmlns:sodipodi="http://sodipodi.sourceforge.net/DTD/sodipodi-0.dtd"
   xmlns="http://www.w3.org/2000/svg"
   xmlns:svg="http://www.w3.org/2000/svg">
  <sodipodi:namedview
     id="namedview1"
     pagecolor="#ffffff"
     bordercolor="#000000"
     borderopacity="0.25"
     inkscape:showpageshadow="2"
     inkscape:pageopacity="0.0"
     inkscape:pagecheckerboard="0"
     inkscape:deskcolor="#d1d1d1"
     inkscape:document-units="px"
     inkscape:zoom="3.2070313"
     inkscape:cx="21.20341"
     inkscape:cy="3.8976857"
     inkscape:window-width="1920"
     inkscape:window-height="1017"
     inkscape:window-x="-8"
     inkscape:window-y="-8"
     inkscape:window-maximized="1"
     inkscape:current-layer="layer1" />
  <defs
     id="defs1" />
  <g
     inkscape:label="Слой 1"
     inkscape:groupmode="layer"
     id="layer1">
    <path
       id="path1"
       style="display:inline;fill:#ffffff;fill-opacity:1;fill-rule:evenodd;stroke:none;stroke-width:0.178212;stroke-linecap:round;stroke-linejoin:round;paint-order:stroke markers fill"
       d="M 8.9739698,0.00326679 C 8.8324103,-0.00565393 8.6744825,0.0032767 8.4987488,0.0352327 7.092887,0.29090913 5.9709799,0.54360456 5.9709799,0.54360456 c 0,0 -1.8279949,0.42374027 -3.076558,1.79267144 C 1.6458625,3.7052072 0.77044756,5.0251401 0.42522755,6.2291458 0.08000879,7.4331515 -0.12016655,7.9484914 0.07900997,9.7046845 0.27819026,11.460878 0.79561235,12.88611 1.3882204,14.132332 c 0.5926107,1.246224 2.8578889,5.039002 2.9398824,5.180648 0.081999,0.141646 3.4332338,4.254253 3.4332338,4.254253 l 2.1261174,1.890315 3.667532,2.786479 2.163772,1.270749 2.245355,1.063304 2.128556,0.848557 1.526775,0.385708 c 0,0 2.348947,0.421749 3.477862,7.11e-4 1.128913,-0.420998 2.436578,-0.756212 3.137223,-1.426771 0.700644,-0.670558 2.192362,-2.17143 2.192362,-2.17143 l 0.853513,-1.666883 0.493699,-1.2916 0.147482,-0.845082 0.05858,-1.241563 c 0,0 0.244968,-0.951744 -0.986702,-1.186311 -1.231672,-0.234567 -5.994126,-1.261022 -5.994126,-1.261022 0,0 -1.187677,-0.931893 -2.304978,0.353392 -1.117299,1.285286 -2.169349,2.315636 -2.169349,2.315636 l -0.238134,0.117803 -2.380985,-1.478895 -2.74289,-2.033478 -2.099968,-1.98379 -1.866016,-2.16031 -1.5578031,-2.15649 -1.0215687,-1.808309 -0.020916,-0.183819 0.1509699,-0.184513 2.3464669,-2.3274515 c 0,0 0.484446,-0.081389 0.542512,-0.5278302 0.05806,-0.4464472 0.04881,-0.4826554 0.04881,-0.4826554 L 10.161154,0.99917816 c 0,0 -0.1962581,-0.93369804 -1.1871805,-0.99588907 z M 7.7770283,2.0975552 C 8.0712746,2.1080866 8.2616622,2.17296 8.2616622,2.17296 L 9.5879567,7.9554483 9.0485819,8.5996864 8.0817553,9.491332 c 0,0 -1.2796707,1.308719 -1.634508,1.629007 -0.3548398,0.320287 0.05543,0.858285 0.05543,0.858285 l 0.2426672,0.497599 0.7740202,1.556034 1.0285392,1.602948 1.1164029,1.484453 1.1606822,1.433721 1.756539,1.829854 1.827316,1.553256 2.290682,1.715878 c 0,0 2.913318,1.685331 3.491112,1.90769 0.577796,0.222363 0.881059,-0.09347 0.881059,-0.09347 l 3.0525,-2.953967 5.93869,1.399668 -0.133884,0.883654 -0.346219,0.944809 -0.329134,0.711997 -0.668377,0.942725 -0.895352,0.924657 -0.980774,0.760989 -1.103155,0.490651 -1.456344,0.429837 -0.795288,0.115015 -0.698711,0.02467 -2.048713,-0.5525 L 18.32253,28.672474 15.301058,26.981267 12.138385,24.874469 9.0049959,21.930232 6.3593798,18.805305 4.5027763,15.838134 c 0,0 -1.1352928,-2.15059 -1.6916877,-3.434536 C 2.2546949,11.119653 1.9616856,9.822272 1.9945326,8.5559006 2.0273797,7.2895329 2.344763,6.471705 3.403807,4.7773548 4.4628472,3.0830058 5.8348432,2.7830479 6.6679405,2.3480898 7.0844916,2.1306126 7.4827757,2.0869866 7.7770233,2.0975539 Z" />
  </g>
</svg>
