<svg width="48" height="48" viewBox="0 0 48 48" fill="none" xmlns="http://www.w3.org/2000/svg">
<g filter="url(#filter0_d_165_17)">
<circle cx="23.5317" cy="20.0317" r="19.5317" fill="#037E8C"/>
<path d="M27.4379 30.5C26.7923 30.5 26.1522 30.3859 25.5262 30.1585C22.7686 29.1567 20.2089 27.5251 18.1239 25.4401C16.0388 23.3551 14.4072 20.7954 13.4055 18.0377C13.0836 17.1515 12.9886 16.2367 13.1232 15.3186C13.2494 14.4587 13.5825 13.6238 14.0866 12.9043C14.5929 12.1816 15.268 11.5806 16.0387 11.1661C16.8607 10.7241 17.7578 10.5 18.7052 10.5C18.9999 10.5 19.2546 10.7059 19.3163 10.994L20.2973 15.5719C20.3417 15.7792 20.278 15.9949 20.1281 16.1448L18.4519 17.821C20.0332 20.9648 22.599 23.5307 25.7429 25.1119L27.4191 23.4357C27.569 23.2858 27.7847 23.2222 27.992 23.2665L32.5699 24.2475C32.858 24.3093 33.0639 24.564 33.0639 24.8586C33.0639 25.8061 32.8397 26.7032 32.3977 27.5252C31.9832 28.2959 31.3822 28.971 30.6595 29.4773C29.9401 29.9814 29.1052 30.3145 28.2452 30.4407C27.9757 30.4802 27.7063 30.5 27.4379 30.5ZM18.2059 11.7773C16.9561 11.9153 15.8469 12.5703 15.1103 13.6216C14.2819 14.8038 14.0888 16.2578 14.5803 17.611C16.5062 22.9126 20.6514 27.0578 25.9529 28.9836C27.3061 29.4752 28.7601 29.282 29.9423 28.4537C30.9936 27.7171 31.6487 26.6078 31.7867 25.3581L28.0626 24.56L26.312 26.3106C26.1257 26.4969 25.8427 26.5464 25.6043 26.4343C21.8861 24.6875 18.8764 21.6778 17.1296 17.9596C17.0176 17.7212 17.0671 17.4382 17.2533 17.2519L19.0039 15.5014L18.2059 11.7773Z" fill="white"/>
</g>
<defs>
<filter id="filter0_d_165_17" x="0" y="0.5" width="47.0632" height="47.0635" filterUnits="userSpaceOnUse" color-interpolation-filters="sRGB">
<feFlood flood-opacity="0" result="BackgroundImageFix"/>
<feColorMatrix in="SourceAlpha" type="matrix" values="0 0 0 0 0 0 0 0 0 0 0 0 0 0 0 0 0 0 127 0" result="hardAlpha"/>
<feOffset dy="4"/>
<feGaussianBlur stdDeviation="2"/>
<feComposite in2="hardAlpha" operator="out"/>
<feColorMatrix type="matrix" values="0 0 0 0 0 0 0 0 0 0 0 0 0 0 0 0 0 0 0.25 0"/>
<feBlend mode="normal" in2="BackgroundImageFix" result="effect1_dropShadow_165_17"/>
<feBlend mode="normal" in="SourceGraphic" in2="effect1_dropShadow_165_17" result="shape"/>
</filter>
</defs>
</svg>
