<svg width="29" height="29" viewBox="0 0 29 29" fill="none" xmlns="http://www.w3.org/2000/svg">
<g filter="url(#filter0_d_1_595)">
<path d="M18.4379 20.5C17.7923 20.5 17.1522 20.3859 16.5262 20.1585C13.7686 19.1567 11.2089 17.5251 9.12386 15.4401C7.03879 13.3551 5.40721 10.7954 4.4055 8.03774C4.0836 7.15152 3.9886 6.23672 4.12324 5.31863C4.24937 4.45867 4.58248 3.62382 5.0866 2.90432C5.59295 2.18165 6.268 1.58058 7.03875 1.16611C7.86067 0.724131 8.75778 0.5 9.70524 0.5C9.99991 0.5 10.2546 0.70589 10.3163 0.994003L11.2973 5.5719C11.3417 5.7792 11.278 5.99489 11.1281 6.14481L9.45193 7.82099C11.0332 10.9648 13.599 13.5307 16.7429 15.1119L18.4191 13.4357C18.569 13.2858 18.7847 13.2222 18.992 13.2665L23.5699 14.2475C23.858 14.3093 24.0639 14.564 24.0639 14.8586C24.0639 15.8061 23.8397 16.7032 23.3977 17.5252C22.9832 18.2959 22.3822 18.971 21.6595 19.4773C20.9401 19.9814 20.1052 20.3145 19.2452 20.4407C18.9757 20.4802 18.7063 20.5 18.4379 20.5ZM9.20588 1.77729C7.95613 1.91525 6.84688 2.57031 6.11027 3.62163C5.28194 4.80381 5.08879 6.25785 5.58033 7.611C7.50619 12.9126 11.6514 17.0578 16.9529 18.9836C18.3061 19.4752 19.7601 19.282 20.9423 18.4537C21.9936 17.7171 22.6487 16.6078 22.7867 15.3581L19.0626 14.56L17.312 16.3106C17.1257 16.4969 16.8427 16.5464 16.6043 16.4343C12.8861 14.6875 9.8764 11.6778 8.1296 7.95962C8.01761 7.72123 8.06706 7.43819 8.25335 7.25195L10.0039 5.5014L9.20588 1.77729Z" fill="white"/>
<path d="M16.6969 19.6885L16.6969 19.6885C17.2697 19.8966 17.8521 20 18.4378 20L16.6969 19.6885ZM16.6969 19.6885C14.0084 18.7118 11.511 17.1201 9.47741 15.0865C7.44377 13.0529 5.85207 10.5556 4.87545 7.86702C4.58133 7.05728 4.49552 6.226 4.61795 5.39118C4.73264 4.60919 5.0362 3.84761 5.49609 3.19123C5.95803 2.53194 6.57415 1.98366 7.27556 1.60647C8.02354 1.20426 8.83913 1 9.70524 1C9.76414 1 9.8151 1.04119 9.82745 1.09879L10.8084 5.67665C10.8173 5.71808 10.8046 5.76124 10.7746 5.79125C10.7746 5.79127 10.7746 5.79128 10.7745 5.7913L9.09838 7.46743L8.84291 7.7229M16.6969 19.6885L8.84291 7.7229M8.84291 7.7229L9.00525 8.04566M8.84291 7.7229L9.00525 8.04566M9.00525 8.04566C10.6348 11.2854 13.2784 13.9291 16.5182 15.5586L16.841 15.721M9.00525 8.04566L16.841 15.721M16.841 15.721L17.0964 15.4655M16.841 15.721L17.0964 15.4655M17.0964 15.4655L18.7726 13.7893C18.7726 13.7893 18.7726 13.7893 18.7726 13.7893C18.8025 13.7594 18.8457 13.7466 18.8874 13.7555L23.4651 14.7364C23.5227 14.7488 23.5639 14.7997 23.5639 14.8586C23.5639 15.7247 23.3596 16.5404 22.9574 17.2883L23.3977 17.5252L22.9574 17.2884C22.5802 17.9898 22.0319 18.6059 21.3726 19.0678L21.6595 19.4773L21.3726 19.0678C20.7163 19.5277 19.9547 19.8313 19.1726 19.946L19.1726 19.946M17.0964 15.4655L19.1726 19.946M19.1726 19.946C18.9269 19.982 18.6818 20 18.4379 20L19.1726 19.946ZM9.60012 1.23073L9.69479 1.67253L10.4928 5.39663L10.5498 5.66261L10.3575 5.85495L8.6069 7.6055L8.60686 7.60554L9.60012 1.23073ZM9.60012 1.23073L9.15102 1.28031M9.60012 1.23073L9.15102 1.28031M9.15102 1.28031C7.75726 1.43417 6.51927 2.16653 5.70078 3.33471M9.15102 1.28031L23.3332 14.9638M23.3332 14.9638L23.2836 15.4129C23.1298 16.8067 22.3974 18.0447 21.2292 18.8632C19.9139 19.7848 18.2891 20.001 16.7822 19.4536C11.3415 17.4772 7.08677 13.2224 5.11038 7.78171L5.58033 7.611L5.11038 7.78171C4.56298 6.2748 4.77918 4.65002 5.70078 3.33471M23.3332 14.9638L22.8914 14.8692M23.3332 14.9638L22.8914 14.8692M5.70078 3.33471L6.11027 3.62163L5.70078 3.33471ZM22.8914 14.8692L19.1673 14.0711L18.9013 14.0142M22.8914 14.8692L18.9013 14.0142M18.9013 14.0142L18.709 14.2065M18.9013 14.0142L18.709 14.2065M18.709 14.2065L16.9584 15.957C16.9211 15.9944 16.8646 16.0042 16.817 15.9818L16.8169 15.9818M18.709 14.2065L16.8169 15.9818M16.8169 15.9818C13.2042 14.2846 10.2794 11.3597 8.58215 7.74702L16.8169 15.9818Z" stroke="black"/>
</g>
<defs>
<filter id="filter0_d_1_595" x="0.0639648" y="0.5" width="28" height="28" filterUnits="userSpaceOnUse" color-interpolation-filters="sRGB">
<feFlood flood-opacity="0" result="BackgroundImageFix"/>
<feColorMatrix in="SourceAlpha" type="matrix" values="0 0 0 0 0 0 0 0 0 0 0 0 0 0 0 0 0 0 127 0" result="hardAlpha"/>
<feOffset dy="4"/>
<feGaussianBlur stdDeviation="2"/>
<feComposite in2="hardAlpha" operator="out"/>
<feColorMatrix type="matrix" values="0 0 0 0 0 0 0 0 0 0 0 0 0 0 0 0 0 0 0.25 0"/>
<feBlend mode="normal" in2="BackgroundImageFix" result="effect1_dropShadow_1_595"/>
<feBlend mode="normal" in="SourceGraphic" in2="effect1_dropShadow_1_595" result="shape"/>
</filter>
</defs>
</svg>
