<svg width="54" height="44" viewBox="0 0 54 44" fill="none" xmlns="http://www.w3.org/2000/svg">
<circle cx="34.5" cy="19.5" r="19.5" fill="#037E8C"/>
<g filter="url(#filter0_d_148_5)">
<path fill-rule="evenodd" clip-rule="evenodd" d="M19.4994 14.6667C19.4994 20.1573 16.4856 24.6791 12.6108 25.2684V33.3333H26.388V25.3742H22.3177C21.683 25.3745 21.0667 25.1536 20.5688 24.7472C20.0709 24.3409 19.7204 23.7729 19.5741 23.1353C19.4278 22.4977 19.4943 21.8278 19.7629 21.2341C20.0314 20.6404 20.4862 20.1576 21.0537 19.864C20.8031 18.9933 20.8771 18.0572 21.2613 17.24C21.6455 16.4228 22.312 15.7835 23.1297 15.448C22.9872 14.8085 22.9862 14.1441 23.1268 13.5042C23.2675 12.8643 23.5461 12.2653 23.942 11.7519C24.3379 11.2385 24.8408 10.8239 25.4134 10.539C25.986 10.254 26.6135 10.106 27.2491 10.106C27.8848 10.106 28.5123 10.254 29.0848 10.539C29.6574 10.8239 30.1604 11.2385 30.5563 11.7519C30.9522 12.2653 31.2308 12.8643 31.3714 13.5042C31.512 14.1441 31.5111 14.8085 31.3685 15.448C32.1862 15.7835 32.8527 16.4228 33.2369 17.24C33.6211 18.0572 33.6952 18.9933 33.4446 19.864C34.012 20.1576 34.4668 20.6404 34.7354 21.2341C35.0039 21.8278 35.0704 22.4977 34.9241 23.1353C34.7779 23.7729 34.4274 24.3409 33.9294 24.7472C33.4315 25.1536 32.8153 25.3745 32.1805 25.3742H28.1102V33.3333H33.7072C34.0498 33.3333 34.3783 33.4738 34.6205 33.7239C34.8628 33.9739 34.9988 34.313 34.9988 34.6667C34.9988 35.0203 34.8628 35.3594 34.6205 35.6095C34.3783 35.8595 34.0498 36 33.7072 36H5.29162C4.94906 36 4.62053 35.8595 4.37831 35.6095C4.13608 35.3594 4 35.0203 4 34.6667C4 34.313 4.13608 33.9739 4.37831 33.7239C4.62053 33.4738 4.94906 33.3333 5.29162 33.3333H10.8886V25.2684C7.01378 24.6791 4 20.1573 4 14.6667C4 8.776 7.47015 4 11.7497 4C16.0293 4 19.4994 8.776 19.4994 14.6667Z" fill="#121214"/>
<path d="M12.5356 24.7741L12.1108 24.8387V25.2684V33.3333V33.8333H12.6108H26.388H26.888V33.3333V25.3742V24.8742H26.388H22.3177H22.3175C21.7996 24.8744 21.2948 24.6943 20.8849 24.3598C20.4747 24.0251 20.1833 23.5549 20.0614 23.0235C19.9395 22.492 19.9952 21.9338 20.2184 21.4401C20.4416 20.9467 20.818 20.5489 21.2834 20.3081L21.6475 20.1197L21.5342 19.7257C21.317 18.9711 21.3814 18.1598 21.7138 17.4527C22.0461 16.746 22.6203 16.1975 23.3195 15.9106L23.7094 15.7506L23.6178 15.3392C23.4911 14.7709 23.4902 14.1802 23.6152 13.6115C23.7402 13.0428 23.9876 12.5116 24.3379 12.0573C24.6883 11.6029 25.1323 11.2374 25.6362 10.9866C26.14 10.7359 26.6913 10.606 27.2491 10.606C27.807 10.606 28.3582 10.7359 28.8621 10.9866C29.3659 11.2374 29.81 11.6029 30.1603 12.0573C30.5107 12.5116 30.7581 13.0428 30.8831 13.6115C31.0081 14.1802 31.0072 14.7709 30.8805 15.3392L30.7888 15.7506L31.1787 15.9106C31.878 16.1975 32.4522 16.746 32.7844 17.4527C33.1168 18.1598 33.1813 18.9711 32.9641 19.7257L32.8507 20.1197L33.2148 20.3081C33.6802 20.5489 34.0566 20.9467 34.2798 21.4401C34.5031 21.9338 34.5587 22.492 34.4368 23.0235C34.3149 23.5549 34.0235 24.0251 33.6133 24.3598C33.2035 24.6943 32.6986 24.8744 32.1807 24.8742H32.1805H28.1102H27.6102V25.3742V33.3333V33.8333H28.1102H33.7072C33.9119 33.8333 34.1116 33.9171 34.2614 34.0717C34.4117 34.2269 34.4988 34.4406 34.4988 34.6667C34.4988 34.8927 34.4117 35.1064 34.2614 35.2616C34.1116 35.4162 33.9119 35.5 33.7072 35.5H5.29162C5.08689 35.5 4.8872 35.4162 4.73743 35.2616C4.58714 35.1064 4.5 34.8927 4.5 34.6667C4.5 34.4406 4.58714 34.2269 4.73743 34.0717C4.8872 33.9171 5.08689 33.8333 5.29162 33.8333H10.8886H11.3886V33.3333V25.2684V24.8387L10.9638 24.7741C9.20126 24.5061 7.59083 23.3358 6.40955 21.5317C5.22973 19.7298 4.5 17.3236 4.5 14.6667C4.5 11.8154 5.34054 9.25429 6.67453 7.41823C8.0089 5.58164 9.80956 4.5 11.7497 4.5C13.6899 4.5 15.4905 5.58164 16.8249 7.41823C18.1589 9.25429 18.9994 11.8154 18.9994 14.6667C18.9994 17.3236 18.2697 19.7298 17.0899 21.5317C15.9086 23.3358 14.2982 24.5061 12.5356 24.7741Z" stroke="black"/>
</g>
<defs>
<filter id="filter0_d_148_5" x="0" y="4" width="39" height="40" filterUnits="userSpaceOnUse" color-interpolation-filters="sRGB">
<feFlood flood-opacity="0" result="BackgroundImageFix"/>
<feColorMatrix in="SourceAlpha" type="matrix" values="0 0 0 0 0 0 0 0 0 0 0 0 0 0 0 0 0 0 127 0" result="hardAlpha"/>
<feOffset dy="4"/>
<feGaussianBlur stdDeviation="2"/>
<feComposite in2="hardAlpha" operator="out"/>
<feColorMatrix type="matrix" values="0 0 0 0 0 0 0 0 0 0 0 0 0 0 0 0 0 0 0.25 0"/>
<feBlend mode="normal" in2="BackgroundImageFix" result="effect1_dropShadow_148_5"/>
<feBlend mode="normal" in="SourceGraphic" in2="effect1_dropShadow_148_5" result="shape"/>
</filter>
</defs>
</svg>
